HIERARCHY
ROOT Hips
{
  OFFSET 0.000000 0.000000 0.000000
  CHANNELS 6 Xposition Yposition Zposition Xrotation Yrotation Zrotation
  JOINT Spine
  {
    OFFSET -0.205965 -24.117554 -2.855246
    CHANNELS 3 Xrotation Yrotation Zrotation
    JOINT Chest
    {
      OFFSET -0.205965 -24.117554 -2.855246
      CHANNELS 3 Xrotation Yrotation Zrotation
      JOINT Neck
      {
        OFFSET 1.732829 -16.074595 -7.583521
        CHANNELS 3 Xrotation Yrotation Zrotation
        JOINT Head
        {
          OFFSET 6.789161 6.150123 11.544352
          CHANNELS 3 Xrotation Yrotation Zrotation
          End Site
          {
            OFFSET 0.0 5.0 2.0
          }
        }
      }
      JOINT LeftShoulder
      {
        OFFSET 15.604512 -0.032207 6.266379
        CHANNELS 3 Xrotation Yrotation Zrotation
        JOINT LeftArm
        {
          OFFSET 2.117507 21.582690 -7.440646
          CHANNELS 3 Xrotation Yrotation Zrotation
          JOINT LeftForeArm
          {
            OFFSET 5.693942 -7.733226 -20.629920
            CHANNELS 3 Xrotation Yrotation Zrotation
            JOINT LeftHand
            {
              OFFSET -8.000000 0.000000 3.000000
              CHANNELS 3 Xrotation Yrotation Zrotation
              End Site
              {
                OFFSET -3.0 0.0 2.0
              }
            }
          }
        }
      }
      JOINT RightShoulder
      {
        OFFSET -15.604512 0.032207 -6.266379
        CHANNELS 3 Xrotation Yrotation Zrotation
        JOINT RightArm
        {
          OFFSET 6.056690 21.053639 -10.595787
          CHANNELS 3 Xrotation Yrotation Zrotation
          JOINT RightForeArm
          {
            OFFSET 15.767041 -11.724293 -14.774765
            CHANNELS 3 Xrotation Yrotation Zrotation
            JOINT RightHand
            {
              OFFSET 8.000000 0.000000 3.000000
              CHANNELS 3 Xrotation Yrotation Zrotation
              End Site
              {
                OFFSET 3.0 0.0 2.0
              }
            }
          }
        }
      }
    }
  }
  JOINT LeftUpLeg
  {
    OFFSET 11.724548 -0.681192 2.472502
    CHANNELS 3 Xrotation Yrotation Zrotation
    JOINT LeftLeg
    {
      OFFSET 4.915397 39.653457 -7.804750
      CHANNELS 3 Xrotation Yrotation Zrotation
      JOINT LeftFoot
      {
        OFFSET 0.000000 -8.000000 5.000000
        CHANNELS 3 Xrotation Yrotation Zrotation
        JOINT LeftToeBase
        {
          OFFSET 0.000000 -1.000000 8.000000
          CHANNELS 3 Xrotation Yrotation Zrotation
          End Site
          {
            OFFSET 0.0 -1.0 3.0
          }
        }
      }
    }
  }
  JOINT RightUpLeg
  {
    OFFSET -11.724548 0.681192 -2.472502
    CHANNELS 3 Xrotation Yrotation Zrotation
    JOINT RightLeg
    {
      OFFSET 3.727733 39.810915 4.032837
      CHANNELS 3 Xrotation Yrotation Zrotation
      JOINT RightFoot
      {
        OFFSET 0.000000 -8.000000 5.000000
        CHANNELS 3 Xrotation Yrotation Zrotation
        JOINT RightToeBase
        {
          OFFSET 0.000000 -1.000000 8.000000
          CHANNELS 3 Xrotation Yrotation Zrotation
          End Site
          {
            OFFSET 0.0 -1.0 3.0
          }
        }
      }
    }
  }
}
MOTION
Frames: 12
Frame Time: 0.066667
0.000000 0.000000 0.000000 0.000000 0.000000 0.000000 0.000000 0.000000 0.000000 0.000000 0.000000 0.000000 -101.448764 47.253899 -56.286714 0.000000 0.000000 0.000000 0.000000 0.000000 0.000000 0.000000 0.000000 0.000000 -73.243009 -58.154318 145.782547 0.000000 0.000000 0.000000 0.000000 0.000000 0.000000 0.000000 0.000000 0.000000 -0.682409 42.511909 -39.938608 0.000000 0.000000 0.000000 0.000000 0.000000 0.000000 -128.316415 3.434547 -0.371013 -58.238301 18.989562 -7.729267 0.000000 0.000000 0.000000 0.000000 0.000000 0.000000 -115.095821 13.091071 0.102513 -58.341658 -12.962320 5.267967 0.000000 0.000000 0.000000
0.198669 0.199667 1.000000 0.045437 0.010291 -0.212737 0.335527 0.279709 -2.328514 0.097503 0.261831 -0.242614 -102.760118 47.045211 -55.521405 0.000000 0.000000 0.000000 0.141331 -1.780676 -5.165356 2.594456 0.375690 0.578442 -70.658589 -60.224633 139.437169 0.000000 0.000000 0.000000 -1.755928 1.483737 1.851544 0.980525 0.148159 0.922544 -0.930669 43.034630 -39.532184 0.000000 0.000000 0.000000 0.035082 -0.416490 -2.101944 -121.147886 -0.524938 0.023648 -60.000000 19.760960 -9.909858 0.000000 0.000000 0.000000 0.086650 -0.107639 0.974262 -113.210719 11.531225 0.280601 -60.000000 -16.304656 7.652928 0.000000 0.000000 0.000000
0.389418 0.397339 2.000000 0.061182 -0.019193 -0.295231 1.385330 0.512681 -4.013847 -0.032507 0.650209 0.085312 -103.542749 46.952242 -55.809111 0.000000 0.000000 0.000000 1.886044 -1.351366 -3.587696 2.202270 -1.327082 1.075544 -72.938244 -57.487463 147.077508 0.000000 0.000000 0.000000 -0.222857 3.016860 5.748906 1.057041 -0.872549 1.813737 -0.057894 41.235794 -38.812041 0.000000 0.000000 0.000000 0.492906 -0.613500 -2.881329 -122.736007 4.671495 -0.275513 -60.000000 23.547694 -11.125174 0.000000 0.000000 0.000000 4.173957 -0.709755 2.285249 -113.678053 8.224380 0.166184 -60.000000 -18.693490 8.521978 0.000000 0.000000 0.000000
0.564642 0.591040 3.000000 0.102269 0.756628 -0.284808 3.934942 0.568883 -3.929024 -0.033685 8.067771 0.149251 -114.725836 45.321375 -59.195375 0.000000 0.000000 0.000000 2.572943 -1.306108 -3.311285 24.849351 -0.532745 6.513276 145.218906 -52.617838 -174.741970 0.000000 0.000000 0.000000 0.703623 6.615617 13.265391 11.829765 5.503114 7.812829 -1.672904 46.554835 -25.013466 0.000000 0.000000 0.000000 0.749518 -1.063269 -5.134522 -124.303899 16.691266 -1.221841 -60.000000 30.000000 -14.387208 0.000000 0.000000 0.000000 4.867625 -1.226122 5.278047 -115.037824 8.135031 0.067657 -60.000000 -22.950013 10.178992 0.000000 0.000000 0.000000
0.717356 0.778837 4.000000 0.199910 1.666530 -0.522149 5.915135 0.644756 -4.065094 0.472686 8.230514 -1.340930 -111.623746 45.830377 -58.051894 0.000000 0.000000 0.000000 -3.164055 -3.494845 -10.188001 27.655827 -3.709531 7.615717 136.789998 -56.242821 -170.970069 0.000000 0.000000 0.000000 -1.764317 9.728807 16.760554 19.538936 10.656190 11.621302 -2.560733 52.284777 -17.897403 0.000000 0.000000 0.000000 -0.374441 -1.061874 -5.563239 -129.079111 32.581747 -3.840772 -56.582347 30.000000 -13.552991 0.000000 0.000000 0.000000 6.540853 -1.694612 6.698393 -115.029140 5.448681 0.045687 -60.000000 -25.099547 11.142107 0.000000 0.000000 0.000000
0.841471 0.958851 5.000000 0.237660 2.240535 -0.556925 5.789670 0.631381 -4.006997 1.066380 8.092603 -3.080681 -111.748973 45.803804 -58.523984 0.000000 0.000000 0.000000 -7.260313 -6.052886 -16.362268 29.503294 -1.076779 7.695650 135.206969 -62.800895 -165.658269 0.000000 0.000000 0.000000 -0.617425 9.502336 17.367076 21.514208 10.946098 13.194311 -2.663049 53.478561 -16.653489 0.000000 0.000000 0.000000 -0.262510 -1.149146 -5.964167 -130.520296 36.311374 -4.788038 -54.758275 30.000000 -12.961168 0.000000 0.000000 0.000000 6.930070 -1.805657 7.002021 -115.760435 5.007050 0.010004 -60.000000 -24.631486 10.922763 0.000000 0.000000 0.000000
0.932039 1.129285 6.000000 0.227085 1.810753 -0.621212 10.747084 0.551832 -3.001728 3.021868 -1.418568 -7.335990 -107.667368 46.433386 -59.364392 0.000000 0.000000 0.000000 -0.557397 -29.187578 -77.566976 -2.368645 -45.113711 20.486144 146.568944 -16.553488 171.660186 0.000000 0.000000 0.000000 -7.299399 12.171540 16.157827 20.443908 5.898266 15.292710 -1.052025 49.328487 -10.316084 0.000000 0.000000 0.000000 6.878764 -1.278994 -3.253662 -123.668118 29.437609 -2.020027 -52.039008 30.000000 -11.383572 0.000000 0.000000 0.000000 7.018087 -2.303501 9.893272 -112.609942 -5.771520 -0.170395 -59.329459 -23.921662 10.049047 0.000000 0.000000 0.000000
0.985450 1.288435 7.000000 0.224292 2.032771 -0.545708 9.632747 0.507159 -2.884533 3.343969 3.117958 -8.804268 -100.680204 47.259829 -54.398314 0.000000 0.000000 0.000000 -25.016731 -20.819524 -38.472988 18.141130 -11.850875 7.368437 -172.954740 -48.489340 179.360425 0.000000 0.000000 0.000000 -5.795246 11.415854 16.185102 19.884394 10.936200 11.763932 -2.638092 52.816576 -17.522336 0.000000 0.000000 0.000000 2.978189 -0.587169 -1.298014 -120.187045 28.307812 -1.059061 -51.206398 30.000000 -10.519963 0.000000 0.000000 0.000000 7.378949 -3.085535 14.036148 -108.589162 -5.032671 -0.325660 -60.000000 -27.242660 12.839127 0.000000 0.000000 0.000000
0.999574 1.434712 8.000000 0.198331 1.833552 -0.467830 8.949308 0.504043 -2.928847 2.254263 2.729929 -5.891829 -94.599948 47.622386 -49.950130 0.000000 0.000000 0.000000 -13.518337 -9.159364 -21.983835 16.993668 7.971283 2.719738 -139.850611 -71.116075 160.740864 0.000000 0.000000 0.000000 -4.293376 9.990886 15.094180 15.964161 6.837588 10.755326 -1.356556 45.569211 -24.970076 0.000000 0.000000 0.000000 2.740242 -0.473064 -0.786277 -121.292995 20.132082 -0.942153 -57.742862 30.000000 -15.457274 0.000000 0.000000 0.000000 7.245937 -3.249416 15.155885 -105.520467 -10.923319 -1.003726 -60.000000 -27.336130 12.940629 0.000000 0.000000 0.000000
0.973848 1.566654 9.000000 0.069370 0.474063 -0.202054 6.077078 0.284451 -1.951469 1.732379 -2.834715 -4.116534 -86.312756 47.299953 -41.688881 0.000000 0.000000 0.000000 -18.117809 -5.582350 -14.089810 24.730470 16.979183 3.801223 85.656350 -82.825720 -101.480024 0.000000 0.000000 0.000000 -6.311827 4.562018 4.595329 2.812216 -10.373210 11.880407 0.952709 38.060438 -27.059905 0.000000 0.000000 0.000000 1.947577 -0.173979 0.372309 -122.073025 16.510764 -0.883504 -58.822119 30.000000 -13.405626 0.000000 0.000000 0.000000 7.525403 -3.258731 14.835771 -102.313845 -16.127880 -1.946579 -60.000000 -21.840707 11.567654 0.000000 0.000000 0.000000
0.909297 1.682942 10.000000 -0.439903 -2.910948 1.154655 5.332953 -0.284997 1.441594 1.225859 -6.984461 -2.745776 -89.700769 47.813041 -47.486188 0.000000 0.000000 0.000000 -34.136869 -11.591403 -21.331977 38.122310 27.823950 8.412613 10.406487 -56.403438 -48.571898 0.000000 0.000000 0.000000 -24.715687 -11.239230 -24.481029 -2.322649 -29.070725 29.979935 -0.421186 33.250727 4.892333 0.000000 0.000000 0.000000 -0.019837 0.459021 2.311401 -126.337701 16.543486 -1.508482 -56.482143 30.000000 -12.978051 0.000000 0.000000 0.000000 10.480326 -3.952786 14.864399 -104.909092 -18.490360 -1.809050 -60.000000 -19.895431 9.522861 0.000000 0.000000 0.000000
0.808496 1.782415 11.000000 -1.449629 -12.167151 2.428054 3.671502 -0.741075 4.694596 0.679709 -29.853880 -1.220547 -97.162143 47.728201 -54.828611 0.000000 0.000000 0.000000 -12.830403 0.826609 -1.025347 32.952045 2.977482 8.142158 40.039588 -62.769042 -100.182851 0.000000 0.000000 0.000000 -15.731929 -26.715324 -48.917301 -11.065213 -36.480881 36.797170 -0.489666 34.601190 6.800123 0.000000 0.000000 0.000000 2.071719 -0.120733 0.759583 -129.065404 16.402621 -1.892661 -56.151659 30.000000 -13.520766 0.000000 0.000000 0.000000 12.540992 -4.371844 14.571602 -104.700331 -18.978582 -1.892901 -60.000000 -14.881642 7.003644 0.000000 0.000000 0.000000
